<svg width="141" height="13" viewBox="0 0 141 13" fill="none" xmlns="http://www.w3.org/2000/svg">
<path d="M9.98438 10.8516C9.46354 11.2995 8.88021 11.6432 8.23438 11.8828C7.58854 12.1224 6.91927 12.2422 6.22656 12.2422C5.69531 12.2422 5.18229 12.1719 4.6875 12.0312C4.19792 11.8958 3.73698 11.7031 3.30469 11.4531C2.8776 11.1979 2.48698 10.8932 2.13281 10.5391C1.77865 10.1849 1.47396 9.79427 1.21875 9.36719C0.96875 8.9349 0.773438 8.47396 0.632812 7.98438C0.497396 7.48958 0.429688 6.97656 0.429688 6.44531C0.429688 5.91406 0.497396 5.40104 0.632812 4.90625C0.773438 4.41146 0.96875 3.95052 1.21875 3.52344C1.47396 3.09115 1.77865 2.69792 2.13281 2.34375C2.48698 1.98958 2.8776 1.6875 3.30469 1.4375C3.73698 1.18229 4.19792 0.986979 4.6875 0.851562C5.18229 0.710938 5.69531 0.640625 6.22656 0.640625C6.91927 0.640625 7.58854 0.760417 8.23438 1C8.88021 1.23438 9.46354 1.57812 9.98438 2.03125L8.79688 3.98438C8.46875 3.63021 8.08073 3.35938 7.63281 3.17188C7.1849 2.97917 6.71615 2.88281 6.22656 2.88281C5.73177 2.88281 5.26823 2.97656 4.83594 3.16406C4.40365 3.35156 4.02604 3.60677 3.70312 3.92969C3.38021 4.2474 3.125 4.625 2.9375 5.0625C2.75 5.49479 2.65625 5.95573 2.65625 6.44531C2.65625 6.9349 2.75 7.39583 2.9375 7.82812C3.125 8.25521 3.38021 8.63021 3.70312 8.95312C4.02604 9.27604 4.40365 9.53125 4.83594 9.71875C5.26823 9.90625 5.73177 10 6.22656 10C6.71615 10 7.1849 9.90625 7.63281 9.71875C8.08073 9.52604 8.46875 9.2526 8.79688 8.89844L9.98438 10.8516Z" fill="#A71B4A"/>
<path d="M18.8516 7.74219C18.8516 8.36719 18.7396 8.95052 18.5156 9.49219C18.2917 10.0286 17.987 10.4948 17.6016 10.8906C17.2161 11.2812 16.763 11.5911 16.2422 11.8203C15.7266 12.0443 15.1719 12.1562 14.5781 12.1562C13.9896 12.1562 13.4349 12.0443 12.9141 11.8203C12.3984 11.5911 11.9453 11.2812 11.5547 10.8906C11.1693 10.4948 10.8646 10.0286 10.6406 9.49219C10.4167 8.95052 10.3047 8.36719 10.3047 7.74219C10.3047 7.10677 10.4167 6.51823 10.6406 5.97656C10.8646 5.4349 11.1693 4.96875 11.5547 4.57812C11.9453 4.18229 12.3984 3.8724 12.9141 3.64844C13.4349 3.42448 13.9896 3.3125 14.5781 3.3125C15.1719 3.3125 15.7266 3.41927 16.2422 3.63281C16.763 3.84115 17.2161 4.14062 17.6016 4.53125C17.987 4.91667 18.2917 5.38281 18.5156 5.92969C18.7396 6.47135 18.8516 7.07552 18.8516 7.74219ZM16.7031 7.74219C16.7031 7.39844 16.6458 7.08854 16.5312 6.8125C16.4219 6.53125 16.2708 6.29167 16.0781 6.09375C15.8854 5.89062 15.6589 5.73698 15.3984 5.63281C15.1432 5.52344 14.8698 5.46875 14.5781 5.46875C14.2865 5.46875 14.0104 5.52344 13.75 5.63281C13.4948 5.73698 13.2708 5.89062 13.0781 6.09375C12.8906 6.29167 12.7422 6.53125 12.6328 6.8125C12.5234 7.08854 12.4688 7.39844 12.4688 7.74219C12.4688 8.0651 12.5234 8.36458 12.6328 8.64062C12.7422 8.91667 12.8906 9.15625 13.0781 9.35938C13.2708 9.5625 13.4948 9.72396 13.75 9.84375C14.0104 9.95833 14.2865 10.0156 14.5781 10.0156C14.8698 10.0156 15.1432 9.96094 15.3984 9.85156C15.6589 9.74219 15.8854 9.58854 16.0781 9.39062C16.2708 9.19271 16.4219 8.95312 16.5312 8.67188C16.6458 8.39062 16.7031 8.08073 16.7031 7.74219Z" fill="#A71B4A"/>
<path d="M30.6719 12H28.5469V6.6875C28.5469 6.54167 28.5182 6.40365 28.4609 6.27344C28.4089 6.14323 28.3333 6.02865 28.2344 5.92969C28.1354 5.83073 28.0208 5.75521 27.8906 5.70312C27.7604 5.64583 27.6224 5.61719 27.4766 5.61719C27.3307 5.61719 27.1927 5.64583 27.0625 5.70312C26.9375 5.75521 26.8255 5.83073 26.7266 5.92969C26.6328 6.02865 26.5573 6.14323 26.5 6.27344C26.4479 6.40365 26.4219 6.54167 26.4219 6.6875V12H24.2891V6.6875C24.2891 6.54167 24.2604 6.40365 24.2031 6.27344C24.151 6.14323 24.0755 6.02865 23.9766 5.92969C23.8776 5.83073 23.763 5.75521 23.6328 5.70312C23.5026 5.64583 23.3646 5.61719 23.2188 5.61719C23.0729 5.61719 22.9349 5.64583 22.8047 5.70312C22.6797 5.75521 22.5677 5.83073 22.4688 5.92969C22.375 6.02865 22.2995 6.14323 22.2422 6.27344C22.1901 6.40365 22.1641 6.54167 22.1641 6.6875V12H20.0312V3.63281H20.5469L21.125 4.27344C21.4219 4.02344 21.7474 3.83073 22.1016 3.69531C22.4609 3.55469 22.8333 3.48438 23.2188 3.48438C23.6094 3.48438 23.9896 3.55729 24.3594 3.70312C24.7344 3.84896 25.0625 4.10156 25.3438 4.46094C25.474 4.28385 25.6224 4.13281 25.7891 4.00781C25.9557 3.88281 26.1302 3.78125 26.3125 3.70312C26.5 3.625 26.6927 3.57031 26.8906 3.53906C27.0885 3.5026 27.2839 3.48438 27.4766 3.48438C27.9193 3.48438 28.3333 3.56771 28.7188 3.73438C29.1094 3.90104 29.4479 4.13021 29.7344 4.42188C30.026 4.70833 30.2552 5.04688 30.4219 5.4375C30.5885 5.82812 30.6719 6.24479 30.6719 6.6875V12Z" fill="#A71B4A"/>
<path d="M42.875 12H40.75V6.6875C40.75 6.54167 40.7214 6.40365 40.6641 6.27344C40.612 6.14323 40.5365 6.02865 40.4375 5.92969C40.3385 5.83073 40.224 5.75521 40.0938 5.70312C39.9635 5.64583 39.8255 5.61719 39.6797 5.61719C39.5339 5.61719 39.3958 5.64583 39.2656 5.70312C39.1406 5.75521 39.0286 5.83073 38.9297 5.92969C38.8359 6.02865 38.7604 6.14323 38.7031 6.27344C38.651 6.40365 38.625 6.54167 38.625 6.6875V12H36.4922V6.6875C36.4922 6.54167 36.4635 6.40365 36.4062 6.27344C36.3542 6.14323 36.2786 6.02865 36.1797 5.92969C36.0807 5.83073 35.9661 5.75521 35.8359 5.70312C35.7057 5.64583 35.5677 5.61719 35.4219 5.61719C35.276 5.61719 35.138 5.64583 35.0078 5.70312C34.8828 5.75521 34.7708 5.83073 34.6719 5.92969C34.5781 6.02865 34.5026 6.14323 34.4453 6.27344C34.3932 6.40365 34.3672 6.54167 34.3672 6.6875V12H32.2344V3.63281H32.75L33.3281 4.27344C33.625 4.02344 33.9505 3.83073 34.3047 3.69531C34.6641 3.55469 35.0365 3.48438 35.4219 3.48438C35.8125 3.48438 36.1927 3.55729 36.5625 3.70312C36.9375 3.84896 37.2656 4.10156 37.5469 4.46094C37.6771 4.28385 37.8255 4.13281 37.9922 4.00781C38.1589 3.88281 38.3333 3.78125 38.5156 3.70312C38.7031 3.625 38.8958 3.57031 39.0938 3.53906C39.2917 3.5026 39.487 3.48438 39.6797 3.48438C40.1224 3.48438 40.5365 3.56771 40.9219 3.73438C41.3125 3.90104 41.651 4.13021 41.9375 4.42188C42.2292 4.70833 42.4583 5.04688 42.625 5.4375C42.7917 5.82812 42.875 6.24479 42.875 6.6875V12Z" fill="#A71B4A"/>
<path d="M47.7656 9.95312C47.849 9.97917 47.9323 9.9974 48.0156 10.0078C48.099 10.013 48.1823 10.0156 48.2656 10.0156C48.474 10.0156 48.6745 9.98698 48.8672 9.92969C49.0599 9.8724 49.2396 9.79167 49.4062 9.6875C49.5781 9.57812 49.7292 9.44792 49.8594 9.29688C49.9948 9.14062 50.1042 8.96875 50.1875 8.78125L51.75 10.3516C51.5521 10.6328 51.3229 10.8854 51.0625 11.1094C50.8073 11.3333 50.5286 11.5234 50.2266 11.6797C49.9297 11.8359 49.6146 11.9531 49.2812 12.0312C48.9531 12.1146 48.6146 12.1562 48.2656 12.1562C47.6771 12.1562 47.1224 12.0469 46.6016 11.8281C46.0859 11.6094 45.6328 11.3047 45.2422 10.9141C44.8568 10.5234 44.5521 10.0599 44.3281 9.52344C44.1042 8.98177 43.9922 8.38802 43.9922 7.74219C43.9922 7.08073 44.1042 6.47656 44.3281 5.92969C44.5521 5.38281 44.8568 4.91667 45.2422 4.53125C45.6328 4.14583 46.0859 3.84635 46.6016 3.63281C47.1224 3.41927 47.6771 3.3125 48.2656 3.3125C48.6146 3.3125 48.9557 3.35417 49.2891 3.4375C49.6224 3.52083 49.9375 3.64062 50.2344 3.79688C50.5365 3.95312 50.8177 4.14583 51.0781 4.375C51.3385 4.59896 51.5677 4.85156 51.7656 5.13281L47.7656 9.95312ZM48.8594 5.55469C48.7604 5.51823 48.6615 5.49479 48.5625 5.48438C48.4688 5.47396 48.3698 5.46875 48.2656 5.46875C47.974 5.46875 47.6979 5.52344 47.4375 5.63281C47.1823 5.73698 46.9583 5.88802 46.7656 6.08594C46.5781 6.28385 46.4297 6.52344 46.3203 6.80469C46.2109 7.08073 46.1562 7.39323 46.1562 7.74219C46.1562 7.82031 46.1589 7.90885 46.1641 8.00781C46.1745 8.10677 46.1875 8.20833 46.2031 8.3125C46.224 8.41146 46.2474 8.50781 46.2734 8.60156C46.2995 8.69531 46.3333 8.77865 46.375 8.85156L48.8594 5.55469Z" fill="#A71B4A"/>
<path d="M54.9766 12H52.8438V3.63281H53.3594L54.0625 4.625C54.4062 4.3125 54.7969 4.07292 55.2344 3.90625C55.6719 3.73438 56.125 3.64844 56.5938 3.64844H58.4766V5.77344H56.5938C56.3698 5.77344 56.1589 5.8151 55.9609 5.89844C55.763 5.98177 55.5911 6.09635 55.4453 6.24219C55.2995 6.38802 55.1849 6.5599 55.1016 6.75781C55.0182 6.95573 54.9766 7.16667 54.9766 7.39062V12Z" fill="#A71B4A"/>
<path d="M66.625 5.29688L65.0625 6.86719C64.9844 6.64844 64.8776 6.45312 64.7422 6.28125C64.6068 6.10417 64.4531 5.95573 64.2812 5.83594C64.1146 5.71615 63.9323 5.625 63.7344 5.5625C63.5365 5.5 63.3333 5.46875 63.125 5.46875C62.8333 5.46875 62.5573 5.52865 62.2969 5.64844C62.0417 5.76823 61.8177 5.9375 61.625 6.15625C61.4375 6.36979 61.2891 6.625 61.1797 6.92188C61.0703 7.21875 61.0156 7.54688 61.0156 7.90625C61.0156 8.19792 61.0703 8.47135 61.1797 8.72656C61.2891 8.98177 61.4375 9.20573 61.625 9.39844C61.8177 9.59115 62.0417 9.74219 62.2969 9.85156C62.5573 9.96094 62.8333 10.0156 63.125 10.0156C63.3333 10.0156 63.5339 9.98698 63.7266 9.92969C63.9193 9.8724 64.099 9.79167 64.2656 9.6875C64.4375 9.57812 64.5885 9.44792 64.7188 9.29688C64.8542 9.14062 64.9635 8.96875 65.0469 8.78125L66.6094 10.3516C66.4115 10.6328 66.1823 10.8854 65.9219 11.1094C65.6667 11.3333 65.388 11.5234 65.0859 11.6797C64.7891 11.8359 64.474 11.9531 64.1406 12.0312C63.8125 12.1146 63.474 12.1562 63.125 12.1562C62.5365 12.1562 61.9818 12.0469 61.4609 11.8281C60.9453 11.6042 60.4922 11.2995 60.1016 10.9141C59.7161 10.5286 59.4115 10.0781 59.1875 9.5625C58.9635 9.04688 58.8516 8.49479 58.8516 7.90625C58.8516 7.26562 58.9635 6.66667 59.1875 6.10938C59.4115 5.55208 59.7161 5.06771 60.1016 4.65625C60.4922 4.23958 60.9453 3.91146 61.4609 3.67188C61.9818 3.43229 62.5365 3.3125 63.125 3.3125C63.474 3.3125 63.8151 3.35677 64.1484 3.44531C64.487 3.53385 64.8073 3.66406 65.1094 3.83594C65.4167 4.0026 65.6979 4.20833 65.9531 4.45312C66.2135 4.69792 66.4375 4.97917 66.625 5.29688Z" fill="#A71B4A"/>
<path d="M70.875 9.95312C70.9583 9.97917 71.0417 9.9974 71.125 10.0078C71.2083 10.013 71.2917 10.0156 71.375 10.0156C71.5833 10.0156 71.7839 9.98698 71.9766 9.92969C72.1693 9.8724 72.349 9.79167 72.5156 9.6875C72.6875 9.57812 72.8385 9.44792 72.9688 9.29688C73.1042 9.14062 73.2135 8.96875 73.2969 8.78125L74.8594 10.3516C74.6615 10.6328 74.4323 10.8854 74.1719 11.1094C73.9167 11.3333 73.638 11.5234 73.3359 11.6797C73.0391 11.8359 72.724 11.9531 72.3906 12.0312C72.0625 12.1146 71.724 12.1562 71.375 12.1562C70.7865 12.1562 70.2318 12.0469 69.7109 11.8281C69.1953 11.6094 68.7422 11.3047 68.3516 10.9141C67.9661 10.5234 67.6615 10.0599 67.4375 9.52344C67.2135 8.98177 67.1016 8.38802 67.1016 7.74219C67.1016 7.08073 67.2135 6.47656 67.4375 5.92969C67.6615 5.38281 67.9661 4.91667 68.3516 4.53125C68.7422 4.14583 69.1953 3.84635 69.7109 3.63281C70.2318 3.41927 70.7865 3.3125 71.375 3.3125C71.724 3.3125 72.0651 3.35417 72.3984 3.4375C72.7318 3.52083 73.0469 3.64062 73.3438 3.79688C73.6458 3.95312 73.9271 4.14583 74.1875 4.375C74.4479 4.59896 74.6771 4.85156 74.875 5.13281L70.875 9.95312ZM71.9688 5.55469C71.8698 5.51823 71.7708 5.49479 71.6719 5.48438C71.5781 5.47396 71.4792 5.46875 71.375 5.46875C71.0833 5.46875 70.8073 5.52344 70.5469 5.63281C70.2917 5.73698 70.0677 5.88802 69.875 6.08594C69.6875 6.28385 69.5391 6.52344 69.4297 6.80469C69.3203 7.08073 69.2656 7.39323 69.2656 7.74219C69.2656 7.82031 69.2682 7.90885 69.2734 8.00781C69.2839 8.10677 69.2969 8.20833 69.3125 8.3125C69.3333 8.41146 69.3568 8.50781 69.3828 8.60156C69.4089 8.69531 69.4427 8.77865 69.4844 8.85156L71.9688 5.55469Z" fill="#A71B4A"/>
<path d="M89.6094 10.8516C89.0885 11.2995 88.5052 11.6432 87.8594 11.8828C87.2135 12.1224 86.5443 12.2422 85.8516 12.2422C85.3203 12.2422 84.8073 12.1719 84.3125 12.0312C83.8229 11.8958 83.362 11.7031 82.9297 11.4531C82.5026 11.1979 82.112 10.8932 81.7578 10.5391C81.4036 10.1849 81.099 9.79427 80.8438 9.36719C80.5938 8.9349 80.3984 8.47396 80.2578 7.98438C80.1224 7.48958 80.0547 6.97656 80.0547 6.44531C80.0547 5.91406 80.1224 5.40104 80.2578 4.90625C80.3984 4.41146 80.5938 3.95052 80.8438 3.52344C81.099 3.09115 81.4036 2.69792 81.7578 2.34375C82.112 1.98958 82.5026 1.6875 82.9297 1.4375C83.362 1.18229 83.8229 0.986979 84.3125 0.851562C84.8073 0.710938 85.3203 0.640625 85.8516 0.640625C86.5443 0.640625 87.2135 0.760417 87.8594 1C88.5052 1.23438 89.0885 1.57812 89.6094 2.03125L88.4219 3.98438C88.0938 3.63021 87.7057 3.35938 87.2578 3.17188C86.8099 2.97917 86.3411 2.88281 85.8516 2.88281C85.3568 2.88281 84.8932 2.97656 84.4609 3.16406C84.0286 3.35156 83.651 3.60677 83.3281 3.92969C83.0052 4.2474 82.75 4.625 82.5625 5.0625C82.375 5.49479 82.2812 5.95573 82.2812 6.44531C82.2812 6.9349 82.375 7.39583 82.5625 7.82812C82.75 8.25521 83.0052 8.63021 83.3281 8.95312C83.651 9.27604 84.0286 9.53125 84.4609 9.71875C84.8932 9.90625 85.3568 10 85.8516 10C86.3411 10 86.8099 9.90625 87.2578 9.71875C87.7057 9.52604 88.0938 9.2526 88.4219 8.89844L89.6094 10.8516Z" fill="#A71B4A"/>
<path d="M98.4766 7.74219C98.4766 8.36719 98.3646 8.95052 98.1406 9.49219C97.9167 10.0286 97.612 10.4948 97.2266 10.8906C96.8411 11.2812 96.388 11.5911 95.8672 11.8203C95.3516 12.0443 94.7969 12.1562 94.2031 12.1562C93.6146 12.1562 93.0599 12.0443 92.5391 11.8203C92.0234 11.5911 91.5703 11.2812 91.1797 10.8906C90.7943 10.4948 90.4896 10.0286 90.2656 9.49219C90.0417 8.95052 89.9297 8.36719 89.9297 7.74219C89.9297 7.10677 90.0417 6.51823 90.2656 5.97656C90.4896 5.4349 90.7943 4.96875 91.1797 4.57812C91.5703 4.18229 92.0234 3.8724 92.5391 3.64844C93.0599 3.42448 93.6146 3.3125 94.2031 3.3125C94.7969 3.3125 95.3516 3.41927 95.8672 3.63281C96.388 3.84115 96.8411 4.14062 97.2266 4.53125C97.612 4.91667 97.9167 5.38281 98.1406 5.92969C98.3646 6.47135 98.4766 7.07552 98.4766 7.74219ZM96.3281 7.74219C96.3281 7.39844 96.2708 7.08854 96.1562 6.8125C96.0469 6.53125 95.8958 6.29167 95.7031 6.09375C95.5104 5.89062 95.2839 5.73698 95.0234 5.63281C94.7682 5.52344 94.4948 5.46875 94.2031 5.46875C93.9115 5.46875 93.6354 5.52344 93.375 5.63281C93.1198 5.73698 92.8958 5.89062 92.7031 6.09375C92.5156 6.29167 92.3672 6.53125 92.2578 6.8125C92.1484 7.08854 92.0938 7.39844 92.0938 7.74219C92.0938 8.0651 92.1484 8.36458 92.2578 8.64062C92.3672 8.91667 92.5156 9.15625 92.7031 9.35938C92.8958 9.5625 93.1198 9.72396 93.375 9.84375C93.6354 9.95833 93.9115 10.0156 94.2031 10.0156C94.4948 10.0156 94.7682 9.96094 95.0234 9.85156C95.2839 9.74219 95.5104 9.58854 95.7031 9.39062C95.8958 9.19271 96.0469 8.95312 96.1562 8.67188C96.2708 8.39062 96.3281 8.08073 96.3281 7.74219Z" fill="#A71B4A"/>
<path d="M101.789 12H99.6562V3.63281H100.172L100.875 4.44531C101.219 4.13281 101.607 3.89323 102.039 3.72656C102.477 3.55469 102.932 3.46875 103.406 3.46875C103.917 3.46875 104.398 3.56771 104.852 3.76562C105.305 3.95833 105.701 4.22656 106.039 4.57031C106.378 4.90885 106.643 5.30729 106.836 5.76562C107.034 6.21875 107.133 6.70312 107.133 7.21875V12H105V7.21875C105 7 104.958 6.79427 104.875 6.60156C104.792 6.40365 104.677 6.23177 104.531 6.08594C104.385 5.9401 104.216 5.82552 104.023 5.74219C103.831 5.65885 103.625 5.61719 103.406 5.61719C103.182 5.61719 102.971 5.65885 102.773 5.74219C102.576 5.82552 102.404 5.9401 102.258 6.08594C102.112 6.23177 101.997 6.40365 101.914 6.60156C101.831 6.79427 101.789 7 101.789 7.21875V12Z" fill="#A71B4A"/>
<path d="M110.789 12H108.656V3.63281H109.172L109.875 4.44531C110.219 4.13281 110.607 3.89323 111.039 3.72656C111.477 3.55469 111.932 3.46875 112.406 3.46875C112.917 3.46875 113.398 3.56771 113.852 3.76562C114.305 3.95833 114.701 4.22656 115.039 4.57031C115.378 4.90885 115.643 5.30729 115.836 5.76562C116.034 6.21875 116.133 6.70312 116.133 7.21875V12H114V7.21875C114 7 113.958 6.79427 113.875 6.60156C113.792 6.40365 113.677 6.23177 113.531 6.08594C113.385 5.9401 113.216 5.82552 113.023 5.74219C112.831 5.65885 112.625 5.61719 112.406 5.61719C112.182 5.61719 111.971 5.65885 111.773 5.74219C111.576 5.82552 111.404 5.9401 111.258 6.08594C111.112 6.23177 110.997 6.40365 110.914 6.60156C110.831 6.79427 110.789 7 110.789 7.21875V12Z" fill="#A71B4A"/>
<path d="M120.984 9.95312C121.068 9.97917 121.151 9.9974 121.234 10.0078C121.318 10.013 121.401 10.0156 121.484 10.0156C121.693 10.0156 121.893 9.98698 122.086 9.92969C122.279 9.8724 122.458 9.79167 122.625 9.6875C122.797 9.57812 122.948 9.44792 123.078 9.29688C123.214 9.14062 123.323 8.96875 123.406 8.78125L124.969 10.3516C124.771 10.6328 124.542 10.8854 124.281 11.1094C124.026 11.3333 123.747 11.5234 123.445 11.6797C123.148 11.8359 122.833 11.9531 122.5 12.0312C122.172 12.1146 121.833 12.1562 121.484 12.1562C120.896 12.1562 120.341 12.0469 119.82 11.8281C119.305 11.6094 118.852 11.3047 118.461 10.9141C118.076 10.5234 117.771 10.0599 117.547 9.52344C117.323 8.98177 117.211 8.38802 117.211 7.74219C117.211 7.08073 117.323 6.47656 117.547 5.92969C117.771 5.38281 118.076 4.91667 118.461 4.53125C118.852 4.14583 119.305 3.84635 119.82 3.63281C120.341 3.41927 120.896 3.3125 121.484 3.3125C121.833 3.3125 122.174 3.35417 122.508 3.4375C122.841 3.52083 123.156 3.64062 123.453 3.79688C123.755 3.95312 124.036 4.14583 124.297 4.375C124.557 4.59896 124.786 4.85156 124.984 5.13281L120.984 9.95312ZM122.078 5.55469C121.979 5.51823 121.88 5.49479 121.781 5.48438C121.688 5.47396 121.589 5.46875 121.484 5.46875C121.193 5.46875 120.917 5.52344 120.656 5.63281C120.401 5.73698 120.177 5.88802 119.984 6.08594C119.797 6.28385 119.648 6.52344 119.539 6.80469C119.43 7.08073 119.375 7.39323 119.375 7.74219C119.375 7.82031 119.378 7.90885 119.383 8.00781C119.393 8.10677 119.406 8.20833 119.422 8.3125C119.443 8.41146 119.466 8.50781 119.492 8.60156C119.518 8.69531 119.552 8.77865 119.594 8.85156L122.078 5.55469Z" fill="#A71B4A"/>
<path d="M133.312 5.29688L131.75 6.86719C131.672 6.64844 131.565 6.45312 131.43 6.28125C131.294 6.10417 131.141 5.95573 130.969 5.83594C130.802 5.71615 130.62 5.625 130.422 5.5625C130.224 5.5 130.021 5.46875 129.812 5.46875C129.521 5.46875 129.245 5.52865 128.984 5.64844C128.729 5.76823 128.505 5.9375 128.312 6.15625C128.125 6.36979 127.977 6.625 127.867 6.92188C127.758 7.21875 127.703 7.54688 127.703 7.90625C127.703 8.19792 127.758 8.47135 127.867 8.72656C127.977 8.98177 128.125 9.20573 128.312 9.39844C128.505 9.59115 128.729 9.74219 128.984 9.85156C129.245 9.96094 129.521 10.0156 129.812 10.0156C130.021 10.0156 130.221 9.98698 130.414 9.92969C130.607 9.8724 130.786 9.79167 130.953 9.6875C131.125 9.57812 131.276 9.44792 131.406 9.29688C131.542 9.14062 131.651 8.96875 131.734 8.78125L133.297 10.3516C133.099 10.6328 132.87 10.8854 132.609 11.1094C132.354 11.3333 132.076 11.5234 131.773 11.6797C131.477 11.8359 131.161 11.9531 130.828 12.0312C130.5 12.1146 130.161 12.1562 129.812 12.1562C129.224 12.1562 128.669 12.0469 128.148 11.8281C127.633 11.6042 127.18 11.2995 126.789 10.9141C126.404 10.5286 126.099 10.0781 125.875 9.5625C125.651 9.04688 125.539 8.49479 125.539 7.90625C125.539 7.26562 125.651 6.66667 125.875 6.10938C126.099 5.55208 126.404 5.06771 126.789 4.65625C127.18 4.23958 127.633 3.91146 128.148 3.67188C128.669 3.43229 129.224 3.3125 129.812 3.3125C130.161 3.3125 130.503 3.35677 130.836 3.44531C131.174 3.53385 131.495 3.66406 131.797 3.83594C132.104 4.0026 132.385 4.20833 132.641 4.45312C132.901 4.69792 133.125 4.97917 133.312 5.29688Z" fill="#A71B4A"/>
<path d="M138.555 12C138.039 12 137.555 11.9036 137.102 11.7109C136.648 11.513 136.25 11.2448 135.906 10.9062C135.568 10.5625 135.299 10.1641 135.102 9.71094C134.909 9.25781 134.812 8.77344 134.812 8.25781V5.77344H133.773V3.64844H134.812V0.304688H136.938V3.64844H140.172V5.77344H136.938V8.25781C136.938 8.48177 136.979 8.69271 137.062 8.89062C137.146 9.08333 137.26 9.2526 137.406 9.39844C137.552 9.54427 137.724 9.66146 137.922 9.75C138.12 9.83333 138.331 9.875 138.555 9.875H140.172V12H138.555Z" fill="#A71B4A"/>
</svg>
