<svg width="111" height="111" viewBox="0 0 111 111" fill="none" xmlns="http://www.w3.org/2000/svg">
<path d="M55.5 4.625C45.4379 4.625 35.6017 7.60877 27.2354 13.199C18.869 18.7892 12.3483 26.7348 8.49765 36.031C4.64704 45.3272 3.63955 55.5564 5.60257 65.4252C7.56559 75.294 12.411 84.3591 19.526 91.4741C26.641 98.5891 35.706 103.434 45.5748 105.397C55.4436 107.36 65.6729 106.353 74.969 102.502C84.2652 98.6518 92.2108 92.131 97.801 83.7646C103.391 75.3983 106.375 65.5621 106.375 55.5C106.375 42.0071 101.015 29.0669 91.4741 19.5259C81.9332 9.98503 68.9929 4.625 55.5 4.625ZM77.2699 70.7301C77.7116 71.1568 78.064 71.6671 78.3064 72.2314C78.5488 72.7956 78.6764 73.4025 78.6817 74.0166C78.687 74.6308 78.57 75.2398 78.3374 75.8082C78.1049 76.3766 77.7615 76.8929 77.3272 77.3272C76.893 77.7615 76.3766 78.1049 75.8082 78.3374C75.2398 78.57 74.6308 78.687 74.0167 78.6817C73.4026 78.6763 72.7957 78.5487 72.2314 78.3063C71.6671 78.0639 71.1568 77.7116 70.7301 77.2699L55.5 62.0397L40.2699 77.2699C39.8433 77.7116 39.3329 78.0639 38.7686 78.3063C38.2044 78.5487 37.5975 78.6763 36.9834 78.6817C36.3693 78.687 35.7603 78.57 35.1919 78.3374C34.6235 78.1049 34.1071 77.7615 33.6728 77.3272C33.2386 76.8929 32.8951 76.3766 32.6626 75.8082C32.43 75.2398 32.313 74.6308 32.3184 74.0166C32.3237 73.4025 32.4513 72.7956 32.6937 72.2314C32.9361 71.6671 33.2884 71.1568 33.7301 70.7301L48.9603 55.5L33.7301 40.2699C33.2884 39.8432 32.9361 39.3329 32.6937 38.7686C32.4513 38.2044 32.3237 37.5975 32.3184 36.9834C32.313 36.3693 32.43 35.7602 32.6626 35.1918C32.8951 34.6234 33.2386 34.1071 33.6728 33.6728C34.1071 33.2385 34.6235 32.8951 35.1919 32.6626C35.7603 32.43 36.3693 32.313 36.9834 32.3183C37.5975 32.3237 38.2044 32.4513 38.7686 32.6937C39.3329 32.936 39.8433 33.2884 40.2699 33.7301L55.5 48.9603L70.7301 33.7301C71.1568 33.2884 71.6671 32.936 72.2314 32.6937C72.7957 32.4513 73.4026 32.3237 74.0167 32.3183C74.6308 32.313 75.2398 32.43 75.8082 32.6626C76.3766 32.8951 76.893 33.2385 77.3272 33.6728C77.7615 34.1071 78.1049 34.6234 78.3374 35.1918C78.57 35.7602 78.687 36.3693 78.6817 36.9834C78.6764 37.5975 78.5488 38.2044 78.3064 38.7686C78.064 39.3329 77.7116 39.8432 77.2699 40.2699L62.0398 55.5L77.2699 70.7301Z" fill="#E93324"/>
</svg>
