<svg width="45" height="45" viewBox="0 0 45 45" fill="none" xmlns="http://www.w3.org/2000/svg">
<path d="M44.2041 11.8422H44.164C43.3934 11.8471 43.2738 11.1778 43.2605 10.867V6.00627C43.2605 5.48736 42.84 5.06689 42.3225 5.06689H28.4252C24.9384 5.06689 23.6377 6.35924 23.3149 6.76494L23.2263 6.88799L23.2256 6.8901L22.9507 7.26697C22.5816 7.77393 22.2595 7.55807 22.1048 7.39213L21.5789 6.73611L21.3187 6.42252C20.8814 5.96338 19.7416 5.06689 17.4825 5.06689H2.6768C2.15789 5.06689 1.73742 5.48736 1.73742 6.00627V10.8051C1.73742 11.6453 1.28109 11.8141 1.00125 11.8422H0.793125C0.565312 11.8563 0.0351562 11.9885 0.0351562 12.9637V35.8356C0.0351562 36.3967 0.490078 36.851 1.05117 36.851H14.5638C18.8747 36.851 20.7534 38.4766 21.3166 39.1003L21.638 39.4982C21.638 39.4982 22.5007 40.4735 23.4091 39.4982L23.5976 39.2774L23.6004 39.276L23.8409 38.9948C23.8479 38.9863 23.9055 38.9217 23.9892 38.8359C24.7085 38.1363 26.5064 36.851 30.022 36.851H43.9474C44.5092 36.851 44.9634 36.3967 44.9634 35.8356V12.7422C44.9634 11.9153 44.3651 11.8464 44.2041 11.8422ZM41.168 32.2469C41.168 32.6976 40.7918 33.0611 40.3235 33.0611H28.8661C24.7887 33.0611 23.3086 34.9033 23.3086 34.9033L23.1209 35.155L23.033 35.2767C22.6441 35.8047 22.0718 35.2809 22.069 35.2781L21.8053 34.9483C21.6098 34.7135 20.1122 33.0604 16.4876 33.0604H4.67508C4.20891 33.0604 3.83203 32.6962 3.83203 32.2462V7.87447C3.83203 7.42447 4.20891 7.06025 4.67508 7.06025H13.8459C20.6677 7.06025 21.3138 10.9352 21.3581 12.0609V29.0104C21.3581 30.2423 21.9452 30.4736 22.2764 30.5074H22.7693C23.1068 30.4736 23.6433 30.2732 23.6433 29.312V11.8422H23.6377C23.6883 10.4324 24.2381 7.05955 28.3409 7.05955H40.3235C40.7918 7.05955 41.168 7.42377 41.168 7.87377V32.2469Z" fill="#241F20"/>
</svg>
